<?xml version="1.0" encoding="UTF-8"?>
<svg xmlns="http://www.w3.org/2000/svg" id="Layer_1" data-name="Layer 1" viewBox="0 0 1084 160">
  <defs>
    <style>.cls-1{fill:#ea4224;}.cls-2{fill:#113b5e;}</style>
  </defs>
  <title>LC-Blue</title>
  <rect class="cls-1" x="97.77" y="2.34" width="22.73" height="22.73" rx="1.11"></rect>
  <rect class="cls-1" x="97.77" y="34.6" width="22.73" height="22.73" rx="1.11"></rect>
  <rect class="cls-1" x="97.77" y="66.85" width="22.73" height="22.73" rx="1.11"></rect>
  <rect class="cls-1" x="65.51" y="2.34" width="22.73" height="22.73" rx="1.11"></rect>
  <rect class="cls-1" x="65.51" y="34.6" width="22.73" height="22.73" rx="1.11"></rect>
  <rect class="cls-1" x="65.51" y="66.85" width="22.73" height="22.73" rx="1.11"></rect>
  <rect class="cls-1" x="33.26" y="2.34" width="22.73" height="22.73" rx="1.11"></rect>
  <rect class="cls-1" x="33.26" y="66.85" width="22.73" height="22.73" rx="1.11"></rect>
  <rect class="cls-1" x="1" y="2.34" width="22.73" height="22.73" rx="1.11"></rect>
  <rect class="cls-1" x="1" y="34.6" width="22.73" height="22.73" rx="1.11"></rect>
  <rect class="cls-1" x="1" y="66.85" width="22.73" height="22.73" rx="1.11"></rect>
  <rect class="cls-1" x="97.77" y="99.11" width="22.73" height="22.73" rx="1.11"></rect>
  <rect class="cls-1" x="1" y="99.11" width="22.73" height="22.73" rx="1.11"></rect>
  <rect class="cls-1" x="33.26" y="99.11" width="22.73" height="22.73" rx="1.11"></rect>
  <rect class="cls-1" x="65.51" y="99.11" width="22.73" height="22.73" rx="1.11"></rect>
  <path class="cls-2" d="M163.39,2.34h22a1.11,1.11,0,0,1,1.11,1.11v98.16h52.43a1.11,1.11,0,0,1,1.11,1.12v18a1.11,1.11,0,0,1-1.11,1.12H163.39a1.12,1.12,0,0,1-1.11-1.12V3.45A1.11,1.11,0,0,1,163.39,2.34Z"></path>
  <path class="cls-2" d="M245.26,78.13c0-25.4,17.21-45.87,42.28-45.87,27.24,0,41.92,21.29,42.28,51.25a1.12,1.12,0,0,1-1.12,1.14h-61c1.67,13.2,9,22.15,21.89,22.15,8.54,0,13.66-3.73,16.27-9.84a1.09,1.09,0,0,1,1-.69h20.25a1.11,1.11,0,0,1,1.09,1.37c-3.68,14.6-17.06,26.7-38.45,26.7C261.3,124.34,245.26,103.7,245.26,78.13ZM268,68.94h38.1c-.66-10.86-7.85-19.14-18.21-19.14C275.84,49.8,270,57.74,268,68.94Z"></path>
  <path class="cls-2" d="M363.47,46.3c5.85-9.2,14.21-14,25.91-14,17.71,0,29.58,13.37,29.58,32.08v56.38a1.12,1.12,0,0,1-1.11,1.12h-20.5a1.12,1.12,0,0,1-1.12-1.12v-53c0-9.19-5.35-15.71-14.87-15.71C371.33,52,364,60,364,71.7v49a1.12,1.12,0,0,1-1.12,1.12h-20.5a1.11,1.11,0,0,1-1.11-1.12v-85a1.1,1.1,0,0,1,1.11-1.11h20a1.1,1.1,0,0,1,1.11,1.11Z"></path>
  <path class="cls-2" d="M430.38,78.3c0-26.74,15.21-46,36.6-46,12,0,20.06,5.51,24.74,12.7V3.45a1.11,1.11,0,0,1,1.11-1.11h20.5c.62,0,1.12.5,1.12-.39V119.22c0,2.12-.5,2.62-1.12,2.62H493.67a1.12,1.12,0,0,1-1.12-1.12V110.64c-5,8.19-13.87,13.7-25.9,13.7C445.09,124.34,430.38,106,430.38,78.3Zm61.84.5c0-16.38-5.35-28.16-19.89-28.16-12.53,0-18.89,11.78-18.89,27.66,0,16.55,6.52,27,18.22,27C485.2,105.29,492.22,94.51,492.22,78.8Z"></path>
  <path class="cls-2" d="M530.35,34.6h20.5A1.11,1.11,0,0,1,552,35.71v85a1.12,1.12,0,0,1-1.12,1.12h-20.5a1.12,1.12,0,0,1-1.11-1.12v-85A1.11,1.11,0,0,1,530.35,34.6Z"></path>
  <path class="cls-2" d="M588.9,46.3c5.85-9.2,14.21-14,25.91-14,17.71,0,29.58,13.37,29.58,32.08v56.38a1.12,1.12,0,0,1-1.12,1.12h-20.5a1.12,1.12,0,0,1-1.11-1.12v-53c0-9.19-5.35-15.71-14.88-15.71-10,0-17.38,8-17.38,19.72v49a1.12,1.12,0,0,1-1.11,1.12h-20.5a1.12,1.12,0,0,1-1.12-1.12v-85a1.11,1.11,0,0,1,1.12-1.11h20a1.11,1.11,0,0,1,1.11,1.11Z"></path>
  <path class="cls-2" d="M750.41,62.51C750.41,27.08,772.47,0,807.73,0c28.87,0,46.15,16.9,49.15,39a1.12,1.12,0,0,1-1.12,1.26H833.87a1.12,1.12,0,0,1-1.08-.89c-2.45-11.53-11.37-19-25.06-19-22.06,0-32.59,18.38-32.59,42.12,0,24.4,12.7,41.95,32.76,41.95,13.84,0,23.72-8.1,25.6-20.11a1.12,1.12,0,0,1,1.1-.95h21.55a1.12,1.12,0,0,1,1.12,1.21,42.23,42.23,0,0,1-13.1,27c-8.19,7.69-19.73,12.7-36.27,12.7C774.3,124.34,750.41,98.44,750.41,62.51Z"></path>
  <path class="cls-2" d="M871,2.34h20.5a1.12,1.12,0,0,1,1.12,1.11V120.72a1.12,1.12,0,0,1-1.12,1.12H871a1.12,1.12,0,0,1-1.11-1.12V3.45A1.11,1.11,0,0,1,871,2.34Z"></path>
  <path class="cls-2" d="M963.36,121.84a1.12,1.12,0,0,1-1.11-1.12v-8.91c-5.85,7.86-13,12.37-25.07,12.37-19,0-29.75-12.2-29.75-30.92V35.71a1.11,1.11,0,0,1,1.11-1.11h20.34A1.11,1.11,0,0,1,930,35.71v53.7c0,10,4.51,15.55,14.21,15.55,10.69,0,17.21-8,17.21-19.39V35.71a1.11,1.11,0,0,1,1.12-1.11H983a1.11,1.11,0,0,1,1.11,1.11v85a1.12,1.12,0,0,1-1.11,1.12Z"></path>
  <path class="cls-2" d="M1020.83,111.14v9.58a1.12,1.12,0,0,1-1.12,1.12h-19.66c-.62,0-1.12-.5-1.12-2.62V2c0,.89.5.39,1.12.39h20.5a1.11,1.11,0,0,1,1.11,1.11V45c4.68-7.19,12.54-12.7,24.4-12.7,21.56,0,36.94,19.3,36.94,46,0,27.74-14.71,46-36.27,46C1034.7,124.34,1025.84,119.16,1020.83,111.14Zm39.11-32.84c0-15.88-6.35-27.66-19.06-27.66-14.37,0-19.72,12.28-19.72,28.16,0,15.71,7.86,26.49,20.56,26.49C1053.42,105.29,1059.94,94.85,1059.94,78.3Z"></path>
  <rect class="cls-1" x="529.24" y="2.34" width="22.73" height="22.73" rx="1.11"></rect>
  <path class="cls-2" d="M737.87,34.6H718.21a1.12,1.12,0,0,0-1.12,1.11v9.75c-5-8-13.87-13.2-25.9-13.2-21.56,0-35.38,19.63-35.38,46,0,25.82,14.49,43.54,36.05,43.54,11.86,0,19.73-5.43,24.73-13.24v14.1c0,11.7-6.18,17.88-19.05,17.88-10.06,0-14.93-4.7-16.95-9.7a1.12,1.12,0,0,0-1-.71H659.08a1.12,1.12,0,0,0-1.11,1.3c2.89,15.93,17.12,26.33,39.9,26.33,12.7,0,23.73-3,30.92-9.69,6.35-5.85,10.2-14,10.2-26.08V35.71A1.12,1.12,0,0,0,737.87,34.6ZM697,102.78c-12.09,0-18.13-10.66-18.13-25.76,0-15.74,6.2-26.38,17.33-26.38,12.08,0,19.55,11,19.55,25.9C715.75,91.64,710.67,102.78,697,102.78Z"></path>
</svg>
