<?xml version="1.0" encoding="UTF-8"?>
<svg xmlns="http://www.w3.org/2000/svg" width="437" height="122" viewBox="0 0 437 122" fill="none">
  <path fill-rule="evenodd" clip-rule="evenodd" d="M60.9071 122C94.5233 122 121.814 94.6676 121.814 61.0001C121.814 27.3326 94.5233 0 60.9071 0C27.291 0 0 27.3326 0 61.0001C0 94.6676 27.291 122 60.9071 122ZM87.0581 68.5647C91.3575 71.8268 92.201 77.9692 88.944 82.2751C85.6869 86.581 79.5539 87.4291 75.2545 84.1671C70.9585 80.905 70.1116 74.7593 73.3687 70.4567C76.6257 66.1508 82.7588 65.3027 87.0581 68.5647ZM85.7683 38.9389C85.7683 38.9389 85.726 38.9063 85.6445 38.8443C82.9249 36.7794 79.4952 35.8824 76.1111 36.3488C72.7303 36.8153 69.6719 38.6095 67.6102 41.3365C56.1453 56.4887 36.046 83.0612 36.046 83.0612C36.046 83.0612 36.0883 83.0938 36.1697 83.1558C38.8926 85.2207 42.3191 86.1177 45.7032 85.6512C49.084 85.1848 52.1424 83.3907 54.2041 80.6636C65.669 65.5115 85.7683 38.9389 85.7683 38.9389ZM46.5597 37.8331C50.8558 41.0951 51.7027 47.2375 48.4456 51.5434C45.1885 55.8493 39.0555 56.6974 34.7561 53.4354C30.4601 50.1733 29.6133 44.0277 32.8703 39.7251C36.1274 35.4192 42.2604 34.5711 46.5597 37.8331Z" fill="#0E202F"></path>
  <path d="M178.759 27.5234C185.306 27.5593 191.69 30.1428 196.771 34.6738C197.097 34.9772 197.487 35.2773 197.65 35.6916C198.074 36.7942 196.966 37.8445 196.054 38.9503C194.458 40.8749 192.895 42.8746 191.299 44.6883C190.648 45.3766 189.605 45.2884 188.726 44.5773C183.58 40.3986 175.893 38.9307 170.031 43.9999C163.549 49.5747 162.604 59.8143 164.2 67.865C165.08 72.3405 167.196 76.7933 171.138 79.367C175.73 82.3812 182.179 82.0255 186.674 79.2006C187.912 78.4144 188.954 77.4684 190.127 76.5029C190.745 75.9777 191.788 76.0495 192.374 76.6725C194.426 79.0049 196.38 81.422 198.4 83.8033C198.497 83.9011 198.497 83.9077 198.53 83.9533C198.953 84.6253 198.79 85.5094 198.171 86.1585C189.866 94.9954 175.6 97.2918 164.005 91.3452C155.504 86.9969 149.902 78.0491 148.534 67.9792C148.339 66.6059 148.208 65.2228 148.143 63.8397C147.817 56.3762 149.12 48.7984 152.963 42.1765C158.012 33.4636 167.62 27.6311 178.369 27.5234C178.499 27.5234 178.629 27.5234 178.759 27.5234Z" fill="#0E202F"></path>
  <path d="M236.489 42.5656C242.254 42.6407 247.661 45.3971 250.039 51.8428C251.244 55.1473 251.635 58.7519 251.668 62.2651C251.733 72.0218 251.668 81.7752 251.668 91.532C251.668 92.3769 250.951 93.1304 250.072 93.163C246.131 93.2119 242.189 93.163 238.216 93.163C237.369 93.15 236.62 92.4421 236.587 91.5712C236.489 82.4668 236.62 73.3625 236.587 64.2582C236.587 61.2212 236.652 57.6199 233.851 56.1258C230.627 54.4263 226.36 55.9334 224.178 58.6409C222.94 60.1838 222.256 62.1509 222.224 64.144C222.191 73.2711 222.224 82.4016 222.224 91.532C222.224 92.3736 221.507 93.1304 220.628 93.163C216.686 93.2119 212.713 93.163 208.772 93.163C207.925 93.15 207.176 92.4421 207.143 91.5712C206.883 70.9779 207.143 50.3814 207.143 29.7849C207.143 28.9466 207.86 28.1899 208.739 28.1572C212.68 28.1083 216.654 28.1572 220.595 28.1572C221.442 28.167 222.224 28.9107 222.224 29.7849V48.3949C222.321 48.3101 222.419 48.222 222.517 48.1372C224.732 46.2713 227.174 44.5652 229.812 43.6062C231.929 42.8364 234.209 42.5493 236.489 42.5656Z" fill="#0E202F"></path>
  <path d="M274.925 73.2554C275.772 77.3982 278.606 81.1757 283.068 82.4055C287.53 83.6321 292.416 82.5556 296.422 80.3602C296.422 80.3602 297.953 79.9068 298.572 80.98C299.842 83.1949 301.112 85.4228 302.252 87.6149C303.002 89.2394 300.395 90.5541 298.116 91.6077C297.692 91.8034 297.269 91.9893 296.846 92.1687C286.456 96.442 273.265 95.4633 265.578 85.7066C259.845 78.4159 258.771 67.6383 261.832 58.9809C264.926 50.2582 272.873 43.2644 282.58 42.8338C282.938 42.8175 283.329 42.8142 283.72 42.8142C291.504 42.8827 299.549 46.7385 302.871 55.8265C304.565 60.5108 304.923 65.7299 304.369 70.4892C304.369 70.5577 304.37 70.6262 304.337 70.6947C304.174 72.0648 302.936 73.2261 301.471 73.2554C296.129 73.2815 290.787 73.2554 285.413 73.2554H274.925ZM283.784 54.476C281.016 54.4955 278.215 55.8461 276.586 58.2926C275.674 59.7018 275.121 61.3426 274.827 63.016L291.667 63.0681C291.602 59.6104 290.462 55.7188 286.456 54.7565C285.576 54.5477 284.696 54.476 283.784 54.476Z" fill="#0E202F"></path>
  <path d="M324.416 43.9954C325.23 44.0411 325.914 44.7 325.98 45.4992L326.435 51.7786C326.5 51.7069 326.533 51.635 326.565 51.5633C329.627 46.6441 334.904 42.7721 340.701 42.8146C340.929 42.8178 341.19 42.821 341.451 42.8308C342.819 42.8732 344.284 42.8831 345.489 43.4996C346.108 43.8095 346.466 44.5369 346.369 45.2122C345.782 48.5884 345.098 51.9417 344.447 55.3016C344.447 55.4125 344.414 55.4191 344.414 55.4615C344.154 56.3259 343.209 56.7402 342.167 56.5151C338.649 55.755 334.904 56.2606 332.038 58.8017C329.627 60.9449 328.259 64.1874 328.194 67.4037C328.129 75.5132 328.194 83.6519 328.194 91.7809C328.194 92.629 327.478 93.3793 326.631 93.4119C322.657 93.4478 318.716 93.4119 314.743 93.4119C313.896 93.4021 313.147 92.6943 313.114 91.8233C312.821 76.4232 313.114 61.0232 313.114 45.6231C313.147 44.7717 313.83 44.0247 314.71 43.9921C317.934 43.9627 321.127 43.9921 324.351 43.9921C324.384 43.9921 324.383 43.9922 324.416 43.9954Z" fill="#0E202F"></path>
  <path d="M363.065 44.0185C363.847 44.0642 364.53 44.7231 364.596 45.5223L365.084 51.8017C365.182 51.6288 365.28 51.4592 365.41 51.2896C368.406 46.6869 373.227 42.9811 378.764 42.8408C380.588 42.7951 382.542 42.7137 384.138 43.5227C384.724 43.8293 385.083 44.547 384.985 45.2353C384.366 48.5984 383.715 51.9615 383.096 55.3246C383.096 55.3246 382.444 56.8579 381.174 56.6197C379.318 56.2185 377.396 55.9543 375.54 56.3555C371.631 57.2036 368.374 60.3351 367.267 64.4029C366.485 67.1919 366.843 70.2484 366.843 73.2658C366.843 75.6112 366.843 77.9567 366.843 80.3021V91.8432C366.81 92.6456 366.583 92.7631 366.29 93.011C366.029 93.2687 365.638 93.4187 365.247 93.435C361.306 93.4709 357.333 93.435 353.392 93.435C352.545 93.4252 351.796 92.7011 351.763 91.8432V45.607C351.796 44.7785 352.479 44.0478 353.326 44.0152C356.551 43.9858 359.775 44.0152 362.967 44.0152C363.032 44.0152 363.032 44.0153 363.065 44.0185Z" fill="#0E202F"></path>
  <path d="M435.428 44.0808C436.438 44.1167 437.253 45.242 436.927 46.2402L420.642 93.7715C417.873 100.912 414.388 108.248 407.157 111.174C402.858 112.903 397.875 113.011 393.608 111.993C392.794 111.801 392.012 111.595 391.198 111.377C391.198 111.377 390.644 111.236 390.286 110.832C389.927 110.405 389.829 109.788 389.992 109.247C390.904 106.552 391.849 103.858 392.761 101.163C393.021 100.442 393.804 99.9692 394.585 100.09C394.585 100.09 395.986 100.256 396.604 100.377C399.633 100.945 402.956 99.8942 404.845 97.0595C405.366 96.2962 405.757 95.4643 406.082 94.5999C406.245 94.1562 406.148 94.4564 406.245 93.9867C406.571 92.5416 406.441 91.015 405.92 89.6221C400.285 75.1419 394.324 60.7824 388.787 46.2663C388.462 45.3007 389.211 44.1068 390.318 44.0775C394.226 44.0579 398.135 44.0481 402.043 44.0775C402.727 44.0971 403.347 44.5408 403.575 45.1606L413.509 73.1553C416.733 63.8194 419.795 54.4312 423.15 45.1507C423.182 45.0463 423.182 45.0431 423.182 45.0007C423.443 44.4657 424.029 44.0971 424.648 44.0775C428.23 44.0481 431.846 44.0025 435.428 44.0808Z" fill="#0E202F"></path>
</svg>
